<mxfile host="app.diagrams.net" modified="2023-04-18T07:52:39.232Z" agent="Mozilla/5.0 (Windows NT 10.0; Win64; x64) AppleWebKit/537.36 (KHTML, like Gecko) Chrome/111.0.0.0 Safari/537.36" etag="VVt-A2jiDLvH4G8Gz5In" version="21.1.8" type="device">
  <diagram name="Page-1" id="HzrodzadPf_l3Fldr79g">
    <mxGraphModel dx="880" dy="452" grid="1" gridSize="10" guides="1" tooltips="1" connect="1" arrows="1" fold="1" page="1" pageScale="1" pageWidth="850" pageHeight="1100" math="0" shadow="0">
      <root>
        <mxCell id="0" />
        <mxCell id="1" parent="0" />
        <mxCell id="a0AgB7d9Z4Yhae3kFxeg-1" value="" style="rounded=0;whiteSpace=wrap;html=1;" vertex="1" parent="1">
          <mxGeometry y="30" width="840" height="440" as="geometry" />
        </mxCell>
        <mxCell id="a0AgB7d9Z4Yhae3kFxeg-2" value="Product photo" style="whiteSpace=wrap;html=1;aspect=fixed;" vertex="1" parent="1">
          <mxGeometry x="30" y="60" width="310" height="310" as="geometry" />
        </mxCell>
        <mxCell id="a0AgB7d9Z4Yhae3kFxeg-3" value="1 of 5 photos" style="rounded=0;whiteSpace=wrap;html=1;" vertex="1" parent="1">
          <mxGeometry x="30" y="340" width="310" height="30" as="geometry" />
        </mxCell>
        <mxCell id="a0AgB7d9Z4Yhae3kFxeg-4" value="" style="shape=image;html=1;verticalAlign=top;verticalLabelPosition=bottom;labelBackgroundColor=#ffffff;imageAspect=0;aspect=fixed;image=https://cdn1.iconfinder.com/data/icons/material-core/12/chevron-right-128.png" vertex="1" parent="1">
          <mxGeometry x="226" y="345" width="20" height="20" as="geometry" />
        </mxCell>
        <mxCell id="a0AgB7d9Z4Yhae3kFxeg-5" value="" style="shape=image;html=1;verticalAlign=top;verticalLabelPosition=bottom;labelBackgroundColor=#ffffff;imageAspect=0;aspect=fixed;image=https://cdn1.iconfinder.com/data/icons/material-core/12/chevron-left-128.png" vertex="1" parent="1">
          <mxGeometry x="120" y="345" width="20" height="20" as="geometry" />
        </mxCell>
        <mxCell id="a0AgB7d9Z4Yhae3kFxeg-6" value="&lt;b&gt;&lt;font style=&quot;font-size: 18px;&quot;&gt;NIKE&lt;/font&gt;&lt;/b&gt;" style="text;html=1;strokeColor=none;fillColor=none;align=center;verticalAlign=middle;whiteSpace=wrap;rounded=0;" vertex="1" parent="1">
          <mxGeometry x="450" y="60" width="90" height="30" as="geometry" />
        </mxCell>
        <mxCell id="a0AgB7d9Z4Yhae3kFxeg-7" value="Tanjun Running Shoes For Men&lt;span style=&quot;color: rgb(33, 33, 33); font-family: Roboto, Arial, sans-serif; font-size: 18px; text-align: start; background-color: rgb(255, 255, 255);&quot;&gt;&amp;nbsp;&amp;nbsp;(Black)&lt;/span&gt;" style="text;html=1;strokeColor=none;fillColor=none;align=center;verticalAlign=middle;whiteSpace=wrap;rounded=0;" vertex="1" parent="1">
          <mxGeometry x="470" y="90" width="240" height="30" as="geometry" />
        </mxCell>
        <mxCell id="a0AgB7d9Z4Yhae3kFxeg-8" value="&lt;b&gt;&lt;font style=&quot;font-size: 18px;&quot;&gt;₹3,100&lt;/font&gt;&lt;/b&gt;" style="text;html=1;strokeColor=none;fillColor=none;align=center;verticalAlign=middle;whiteSpace=wrap;rounded=0;" vertex="1" parent="1">
          <mxGeometry x="470" y="130" width="70" height="30" as="geometry" />
        </mxCell>
        <mxCell id="a0AgB7d9Z4Yhae3kFxeg-11" value="&lt;div style=&quot;border-color: var(--border-color); box-sizing: border-box; margin: 8px 0px 0px; padding: 0px; color: rgb(33, 33, 33); font-family: Roboto, Arial, sans-serif; text-align: start; background-color: rgb(255, 255, 255);&quot; class=&quot;_3Z0lU8&quot;&gt;&lt;div style=&quot;border-color: var(--border-color); box-sizing: border-box; margin: 0px; padding: 0px;&quot; class=&quot;rd9nIL&quot;&gt;&lt;font style=&quot;border-color: var(--border-color); font-size: 15px;&quot;&gt;&lt;b style=&quot;border-color: var(--border-color);&quot;&gt;Product Detail&lt;/b&gt;&lt;/font&gt;&lt;/div&gt;&lt;/div&gt;&lt;div style=&quot;border-color: var(--border-color); box-sizing: border-box; margin: 0px; padding: 0px; line-height: 1.43; color: rgb(33, 33, 33); position: relative; font-family: Roboto, Arial, sans-serif; text-align: start; background-color: rgb(255, 255, 255); font-size: 11px;&quot; class=&quot;_3TT44I&quot;&gt;&lt;div style=&quot;border-color: var(--border-color); box-sizing: border-box; margin: 0px; padding: 0px;&quot; class=&quot;WT_FyS&quot;&gt;&lt;div style=&quot;border-color: var(--border-color); box-sizing: border-box; margin: 0px; padding: 0px;&quot; class=&quot;XUp0WS&quot;&gt;&lt;span style=&quot;border-color: var(--border-color); box-sizing: border-box; margin: 12px 0px 0px; padding: 0px; display: flex; flex-flow: row wrap; width: 787.203px;&quot; class=&quot;_3j4Zjq row&quot;&gt;&lt;img style=&quot;border: none; box-sizing: border-box; margin: 0px 10px 0px 0px; padding: 0px; color: inherit; outline: none;&quot; class=&quot;_3HLfAg&quot; height=&quot;18&quot; width=&quot;18&quot; src=&quot;https://rukminim1.flixcart.com/www/36/36/promos/06/09/2016/c22c9fc4-0555-4460-8401-bf5c28d7ba29.png?q=90&quot;&gt;&lt;li style=&quot;border-color: var(--border-color); box-sizing: border-box; margin: -2px 0px 0px; padding: 0px; list-style: none; width: 739.969px; display: inline-block; vertical-align: top;&quot; class=&quot;_16eBzU col&quot;&gt;Get extra 18% off (price inclusive of cashback/coupon)&lt;div style=&quot;border-color: var(--border-color); box-sizing: border-box; margin: 0px; padding: 0px; display: inline-block; position: relative;&quot; class=&quot;Bv11UC _1qNw3R&quot;&gt;&lt;span style=&quot;border-color: var(--border-color); box-sizing: border-box; margin: 0px 0px 0px 5px; padding: 0px; color: rgb(40, 116, 240); display: inline-block; cursor: pointer;&quot; class=&quot;fGhUR2&quot;&gt;T&amp;amp;C&lt;/span&gt;&lt;/div&gt;&lt;br style=&quot;border-color: var(--border-color);&quot;&gt;&lt;/li&gt;&lt;/span&gt;&lt;span style=&quot;border-color: var(--border-color); box-sizing: border-box; margin: 12px 0px 0px; padding: 0px; display: flex; flex-flow: row wrap; width: 787.203px;&quot; class=&quot;_3j4Zjq row&quot;&gt;&lt;img style=&quot;border: none; box-sizing: border-box; margin: 0px 10px 0px 0px; padding: 0px; color: inherit; outline: none;&quot; class=&quot;_3HLfAg&quot; height=&quot;18&quot; width=&quot;18&quot; src=&quot;https://rukminim1.flixcart.com/www/36/36/promos/06/09/2016/c22c9fc4-0555-4460-8401-bf5c28d7ba29.png?q=90&quot;&gt;&lt;li style=&quot;border-color: var(--border-color); box-sizing: border-box; margin: -2px 0px 0px; padding: 0px; list-style: none; width: 739.969px; display: inline-block; vertical-align: top;&quot; class=&quot;_16eBzU col&quot;&gt;&lt;font style=&quot;border-color: var(--border-color);&quot;&gt;&lt;span style=&quot;border-color: var(--border-color); box-sizing: border-box; margin: 0px; padding: 0px 4px 0px 0px;&quot; class=&quot;u8dYXW&quot;&gt;Bank Offer&lt;/span&gt;&lt;span style=&quot;border-color: var(--border-color); box-sizing: border-box; margin: 0px; padding: 0px;&quot;&gt;5% Cashback on Flipkart Axis Bank Card&lt;/span&gt;&lt;div style=&quot;border-color: var(--border-color); box-sizing: border-box; margin: 0px; padding: 0px; display: inline-block; position: relative;&quot; class=&quot;Bv11UC _1qNw3R&quot;&gt;&lt;span style=&quot;border-color: var(--border-color); box-sizing: border-box; margin: 0px 0px 0px 5px; padding: 0px; color: rgb(40, 116, 240); display: inline-block; cursor: pointer;&quot; class=&quot;fGhUR2&quot;&gt;T&amp;amp;C&lt;/span&gt;&lt;/div&gt;&lt;/font&gt;&lt;/li&gt;&lt;/span&gt;&lt;span style=&quot;border-color: var(--border-color); box-sizing: border-box; margin: 12px 0px 0px; padding: 0px; display: flex; flex-flow: row wrap; width: 787.203px;&quot; class=&quot;_3j4Zjq row&quot;&gt;&lt;font style=&quot;border-color: var(--border-color);&quot; color=&quot;rgba(0, 0, 0, 0)&quot;&gt;&lt;span style=&quot;border-color: initial; border-width: initial; border-image: initial; outline-color: initial; outline-width: initial;&quot;&gt;&lt;img style=&quot;border: none; box-sizing: border-box; margin: 0px 10px 0px 0px; padding: 0px; color: inherit; outline: none;&quot; class=&quot;_3HLfAg&quot; height=&quot;18&quot; width=&quot;18&quot; src=&quot;https://rukminim1.flixcart.com/www/36/36/promos/06/09/2016/c22c9fc4-0555-4460-8401-bf5c28d7ba29.png?q=90&quot;&gt;&lt;/span&gt;&lt;/font&gt;&lt;li style=&quot;border-color: var(--border-color); box-sizing: border-box; margin: -2px 0px 0px; padding: 0px; list-style: none; width: 739.969px; display: inline-block; vertical-align: top;&quot; class=&quot;_16eBzU col&quot;&gt;&lt;font style=&quot;border-color: var(--border-color);&quot;&gt;&lt;span style=&quot;border-color: var(--border-color); box-sizing: border-box; margin: 0px; padding: 0px;&quot;&gt;Buy this product and Get Extra ₹50 Off on Select Fans&lt;/span&gt;&lt;div style=&quot;border-color: var(--border-color); box-sizing: border-box; margin: 0px; padding: 0px; display: inline-block; position: relative;&quot; class=&quot;Bv11UC _1qNw3R&quot;&gt;&lt;span style=&quot;border-color: var(--border-color); box-sizing: border-box; margin: 0px 0px 0px 5px; padding: 0px; color: rgb(40, 116, 240); display: inline-block; cursor: pointer;&quot; class=&quot;fGhUR2&quot;&gt;T&amp;amp;C&lt;/span&gt;&lt;/div&gt;&lt;/font&gt;&lt;/li&gt;&lt;/span&gt;&lt;/div&gt;&lt;/div&gt;&lt;/div&gt;" style="text;html=1;strokeColor=none;fillColor=none;align=center;verticalAlign=middle;whiteSpace=wrap;rounded=0;" vertex="1" parent="1">
          <mxGeometry x="660" y="120" width="420" height="210" as="geometry" />
        </mxCell>
        <mxCell id="a0AgB7d9Z4Yhae3kFxeg-12" value="Size" style="text;html=1;strokeColor=none;fillColor=none;align=center;verticalAlign=middle;whiteSpace=wrap;rounded=0;" vertex="1" parent="1">
          <mxGeometry x="470" y="290" width="60" height="30" as="geometry" />
        </mxCell>
        <mxCell id="a0AgB7d9Z4Yhae3kFxeg-13" value="7" style="text;html=1;strokeColor=none;fillColor=none;align=center;verticalAlign=middle;whiteSpace=wrap;rounded=0;" vertex="1" parent="1">
          <mxGeometry x="520" y="290" width="60" height="30" as="geometry" />
        </mxCell>
        <mxCell id="a0AgB7d9Z4Yhae3kFxeg-17" value="" style="ellipse;whiteSpace=wrap;html=1;aspect=fixed;" vertex="1" parent="1">
          <mxGeometry x="530" y="300" width="10" height="10" as="geometry" />
        </mxCell>
        <mxCell id="a0AgB7d9Z4Yhae3kFxeg-18" value="8" style="text;html=1;strokeColor=none;fillColor=none;align=center;verticalAlign=middle;whiteSpace=wrap;rounded=0;" vertex="1" parent="1">
          <mxGeometry x="560" y="290" width="60" height="30" as="geometry" />
        </mxCell>
        <mxCell id="a0AgB7d9Z4Yhae3kFxeg-19" value="" style="ellipse;whiteSpace=wrap;html=1;aspect=fixed;" vertex="1" parent="1">
          <mxGeometry x="570" y="300" width="10" height="10" as="geometry" />
        </mxCell>
        <mxCell id="a0AgB7d9Z4Yhae3kFxeg-20" value="" style="ellipse;whiteSpace=wrap;html=1;aspect=fixed;" vertex="1" parent="1">
          <mxGeometry x="610" y="300" width="10" height="10" as="geometry" />
        </mxCell>
        <mxCell id="a0AgB7d9Z4Yhae3kFxeg-21" value="9" style="text;html=1;strokeColor=none;fillColor=none;align=center;verticalAlign=middle;whiteSpace=wrap;rounded=0;" vertex="1" parent="1">
          <mxGeometry x="600" y="290" width="60" height="30" as="geometry" />
        </mxCell>
        <mxCell id="a0AgB7d9Z4Yhae3kFxeg-22" value="Add to cart" style="rounded=1;whiteSpace=wrap;html=1;" vertex="1" parent="1">
          <mxGeometry x="475" y="337.5" width="135" height="35" as="geometry" />
        </mxCell>
        <mxCell id="a0AgB7d9Z4Yhae3kFxeg-23" value="Buy Now" style="rounded=1;whiteSpace=wrap;html=1;" vertex="1" parent="1">
          <mxGeometry x="640" y="337.5" width="135" height="35" as="geometry" />
        </mxCell>
      </root>
    </mxGraphModel>
  </diagram>
</mxfile>
